<svg xmlns="http://www.w3.org/2000/svg" width="12.282" height="19.651" viewBox="0 0 12.282 19.651">
  <path id="Icon_awesome-mobile-alt" data-name="Icon awesome-mobile-alt" d="M10.44,0h-8.6A1.843,1.843,0,0,0,0,1.842V17.809a1.843,1.843,0,0,0,1.842,1.842h8.6a1.843,1.843,0,0,0,1.842-1.842V1.842A1.843,1.843,0,0,0,10.44,0Zm-4.3,18.423a1.228,1.228,0,1,1,1.228-1.228A1.227,1.227,0,0,1,6.141,18.423Zm4.3-4.145a.462.462,0,0,1-.461.461H2.3a.462.462,0,0,1-.461-.461V2.3A.462.462,0,0,1,2.3,1.842H9.979a.462.462,0,0,1,.461.461Z" fill="#fff"/>
</svg>
