<svg xmlns="http://www.w3.org/2000/svg" width="115" height="48.909" viewBox="0 0 115 48.909">
  <g id="Group_120" data-name="Group 120" transform="translate(-130 -55)">
    <g id="Group_6" data-name="Group 6" transform="translate(-25.437 31)">
      <path id="Path_8" data-name="Path 8" d="M99.755,35.245l-14.265.195-.027-1.117s.692-.858,1.236-.5-.027-1.119-.027-1.119,1.653-1.63,2.673-.072l.4-1.782.891-.024s1.539-2.746,3.461-.652c0,0,1.2-2.178,2.195-1.458l1.447-2.837s.408-1.5,1.514-.04,1.095,1,1,.719.123-2.254.656-2.355,1.355.715,1.355.715,1.244-.231.516-.765a1.325,1.325,0,0,1-.566-1.285l1.145-.59a4.592,4.592,0,0,1,2.2,2.272c.845,1.751,1.632,1.076,1.632,1.076l.6-.855.941.348s-.242-.937-.6-1.109.562-.569.562-.569l.387-.756-.024-1.026.623-.017-.019-.745.509-1.133.8-.021c.191.509.185.321.415.6l.229.274.222-.053.4.036.017.7.314.085-.034-1.4-.017-.7L112.511,19l-.013-.513.656-.53.669-.019.5.314.348-.337.026,1.073s.4-.695.524-.45a6.563,6.563,0,0,1,.265,1.112s.266,1.175.331,1.36.951,7.312-2.1,8.824l-2.278-3.172a12.783,12.783,0,0,0,.613,5.58c1.019,2.771.544.42.544.42l.1,1.615.772-.083-.093,1.059-10.7.288s-1.543-.691-.617-5.83a10.513,10.513,0,0,0-2.006,5.526Z" transform="translate(79.447 9.362)" fill="#9a2037"/>
      <path id="Path_9" data-name="Path 9" d="M119.628,27.019s-2.991-7.281-2.509-8.585a17.3,17.3,0,0,1,1.06-2.314.66.66,0,0,1,1.181-.032c.615.854.049,1.989,1.5,3.069,0,0,2.367,4.4-1.234,7.861" transform="translate(93.121 8.411)" fill="#9a2037"/>
      <path id="Path_10" data-name="Path 10" d="M123.617,21.219l-.029-1.212a.928.928,0,0,1-.566-1.244l-.454-.268a2.748,2.748,0,0,1,.931-2.077,6.7,6.7,0,0,1,2.99,3.744s3.441,5.738,3.543,6.271.557,4.533-.745,5.967a3.954,3.954,0,0,0-.779,3.41l-10.338.277s-1.652-4.308-.14-5.716,3.609-4.744,3.486-7.059c0,0,1.517-2.278,1.9-1.046,0,0,1.377-.285.2-.814Z" transform="translate(93.263 8.714)" fill="#9a2037"/>
      <path id="Path_12" data-name="Path 12" d="M128.443,26.436s-2.986-5.354-3.951-6.54-.844-3.522-.844-3.522l1.115-.03a4.571,4.571,0,0,0,1.618,2.335c1.178.761,4.888,2.947,2.063,7.757" transform="translate(95.967 8.682)" fill="#9a2037"/>
      <path id="Path_13" data-name="Path 13" d="M127.874,35.647l-1.884.05s-.63-3.153,1.125-4.32a3.135,3.135,0,0,0,1.542-2.84s.815-.458.56-1.2,1.01-.027,1.01-.027l.645-.348-.607-.523-.32-.924s-.211-1.3.373-1.812.977,1.092.977,1.092l.891-.023s-1.64-3.874-.567-6.2,2.123-.679,2.123-.679.47,4.59,1.443,5.5,1.019.284,1.019.284-1.225-3.884.649-5.055a.937.937,0,0,1,1.037,1.092s1.529,4.126,2.616,4.843,2.125,4.234,2.125,4.234-.249-2.916-.987-3.891a6.987,6.987,0,0,1-1.165-3.885c.159-.751,1.215-1.338,1.215-1.338a26.027,26.027,0,0,0,1.625,3.183c.553.738,5.311,5.646.215,8.768,0,0-1.977,3.069-1.517,3.648s-10.338.277-10.338.277-1.112-1.712.023-2.675c0,0,.928-2.169-.43-2.973l-.117-1.209s.208,4.844-.391,5.887a1.846,1.846,0,0,1-1.94.735l.669-1.635s.728-3.47-.745-1.471-.871,3.443-.871,3.443" transform="translate(96.935 9.106)" fill="#9a2037"/>
      <path id="Path_11" data-name="Path 11" d="M107.5,22.291a7.152,7.152,0,0,1-.44,6.6l-.706,4.87s.294,2.48,2.017,2.371l11.25.383s3.166-1.825,3.166-6.675c0,0-.228-4.471-1.575-6.053,0,0-.5-5.956-.521-6.7s-1.188.032-1.188.032l-.037-1.491s-3.516,2.085-2.831,5.8,3.732,11.591,1.718,11.893-2.808-12.734-2.808-12.734,3.805-4.828.847-4.252-3.977,2.719-5.9,6.749l-2.3-1.554Z" transform="translate(88.485 8.372)" fill="#9a2037"/>
      <path id="Path_14" data-name="Path 14" d="M159.293,32.881l-10.161.272-1.458-1.267a12.882,12.882,0,0,1-.069-2.8c.146-1.309-1.236,4.138-1.236,4.138l-7.666.156s.12-3.562,1.158-4.957,1.4-3.52.742-6.113c0,0,1.282-1.03,3.023,2.033,0,0,.188-1.994,1.789-2.162s1.023,2.9,1.023,2.9.953.08.923-1.153a3.95,3.95,0,0,1,2.543,1.868s-.639,3.065.577,4.151a1.77,1.77,0,0,0,.2-1.436c-.2-.927.405-.446.405-.446s.375-1.689,1.775-.358l.143.99a4.849,4.849,0,0,1,2.1.752l1-.275-.1.749.769-.146.494.734.954.162.2.927.831-.023.85.662.013.573Z" transform="translate(102.483 11.193)" fill="#9a2037"/>
      <path id="Path_15" data-name="Path 15" d="M186.292,34.937l-103.558.474a.686.686,0,0,1-.686-.681l-.011-2.8a.685.685,0,0,1,.679-.685l103.56-.474a.685.685,0,0,1,.686.679l.011,2.8a.687.687,0,0,1-.681.686" transform="translate(77.964 14.925)" fill="#a7243a"/>
      <path id="Path_16" data-name="Path 16" d="M186.292,34.937l-103.558.474a.686.686,0,0,1-.686-.681l-.011-2.8a.685.685,0,0,1,.679-.685l103.56-.474a.685.685,0,0,1,.686.679l.011,2.8a.687.687,0,0,1-.681.686" transform="translate(77.964 37.498)" fill="#a7243a"/>
    </g>
    <text id="FIRE-LOCK" transform="translate(130 97)" fill="#9a2037" font-size="22" font-family="SitkaSubheading-Bold, Sitka Subheading" font-weight="700"><tspan x="0" y="0">FIRE-LOCK</tspan></text>
  </g>
</svg>
